<?xml version="1.0" encoding="utf-8"?>
<!-- Generator: Adobe Illustrator 16.0.0, SVG Export Plug-In . SVG Version: 6.00 Build 0)  -->
<!DOCTYPE svg PUBLIC "-//W3C//DTD SVG 1.1//EN" "http://www.w3.org/Graphics/SVG/1.1/DTD/svg11.dtd">
<svg version="1.1" id="Layer_1" xmlns="http://www.w3.org/2000/svg" xmlns:xlink="http://www.w3.org/1999/xlink" x="0px" y="0px"
	 width="159.369px" height="3.562px" viewBox="0 0 159.369 3.562" enable-background="new 0 0 159.369 3.562" xml:space="preserve">
<g>
	<g>
		<polygon fill="#FFFFFF" points="54.984,2.906 54.604,1.812 1.198,1.812 1.958,2.906 		"/>
		<polygon fill="#FFFFFF" points="55.431,3.562 55.079,2.469 1.673,2.469 2.404,3.562 		"/>
		<polygon fill="#FFFFFF" points="53.785,1.156 53.406,0.062 0,0.062 0.759,1.156 		"/>
		<polygon fill="#FFFFFF" points="54.241,1.812 53.861,0.719 0.456,0.719 1.215,1.812 		"/>
	</g>
	<g>
		<polygon fill="#FFFFFF" points="106.738,2.677 106.358,1.584 52.952,1.584 53.712,2.677 		"/>
		<polygon fill="#FFFFFF" points="106.967,3.562 106.586,2.469 53.179,2.469 53.939,3.562 		"/>
		<polygon fill="#FFFFFF" points="106.128,1.094 105.748,0 52.342,0 53.102,1.094 		"/>
		<polygon fill="#FFFFFF" points="106.355,1.75 105.977,0.656 52.57,0.656 53.329,1.75 		"/>
	</g>
	<g>
		<polygon fill="#FFFFFF" points="159.059,2.677 158.678,1.584 105.271,1.584 106.031,2.677 		"/>
		<polygon fill="#FFFFFF" points="159.369,3.562 158.988,2.469 105.583,2.469 106.342,3.562 		"/>
		<polygon fill="#FFFFFF" points="158.515,1.094 158.135,0 104.729,0 105.488,1.094 		"/>
		<polygon fill="#FFFFFF" points="158.742,1.75 158.362,0.656 104.957,0.656 105.716,1.75 		"/>
	</g>
</g>
</svg>
