<?xml version="1.0" encoding="utf-8"?>
<!-- Generator: Adobe Illustrator 16.0.0, SVG Export Plug-In . SVG Version: 6.00 Build 0)  -->
<!DOCTYPE svg PUBLIC "-//W3C//DTD SVG 1.1//EN" "http://www.w3.org/Graphics/SVG/1.1/DTD/svg11.dtd">
<svg version="1.1" id="Layer_1" xmlns="http://www.w3.org/2000/svg" xmlns:xlink="http://www.w3.org/1999/xlink" x="0px" y="0px"
	 width="37.758px" height="36.721px" viewBox="0 0 37.758 36.721" enable-background="new 0 0 37.758 36.721" xml:space="preserve">
<g>
	<path fill="#990000" d="M28.277,6.762c0,0-7.543-0.567-10.089,5.743c-2.546,6.313,3.311,13.897,9.941,14.821
		c0,0-8.071,0.938-11.479-5.86c-3.407-6.795,0.646-13.862,5.35-15.1C26.32,5.233,28.277,6.762,28.277,6.762z"/>
	<path fill="#990000" d="M7.265,15.675c0,0,2.662-7.093,7.885-4.455c3.932,1.985,1.169,7.273,1.198,7.127
		c0.03-0.148-1.934,2.37-6.278,2c-3.816-0.324-4.066-0.495-7.244,1.891c-3.176,2.387,3.398,0.086,3.398,0.086
		s3.312,1.273,9.073-0.586c5.724-1.848,5.06-7.809,3.506-10.468c-2.096-3.584-8.198-3.271-9.976-1.31
		C7.049,11.92,7.439,14.98,7.265,15.675z"/>
	<path fill="#990000" d="M5.634,20.297c-8.965,1.562-5.955,12.29,0.182,12.148c0,0-6.553-4.91-2.626-8.59
		c0,0,4.495-3.478,8.085,2.754C11.275,26.61,10.946,19.374,5.634,20.297z"/>
</g>
</svg>
