<?xml version="1.0" encoding="utf-8"?>
<!-- Generator: Adobe Illustrator 16.0.0, SVG Export Plug-In . SVG Version: 6.00 Build 0)  -->
<!DOCTYPE svg PUBLIC "-//W3C//DTD SVG 1.1//EN" "http://www.w3.org/Graphics/SVG/1.1/DTD/svg11.dtd">
<svg version="1.1" id="Layer_1" xmlns="http://www.w3.org/2000/svg" xmlns:xlink="http://www.w3.org/1999/xlink" x="0px" y="0px"
	 width="94.069px" height="95.167px" viewBox="0 0 94.069 95.167" enable-background="new 0 0 94.069 95.167" xml:space="preserve">
<polygon fill="#333333" points="0,0.167 74.433,0.167 74.433,4.976 64.196,13 51.188,21.643 51.188,33.028 55.708,45.123 
	63.208,50.912 59.208,62.455 46.375,69.309 37.963,76.309 30.875,85.643 20.648,89.617 7.875,84.067 2.709,78.143 0.062,69.833 "/>
<g>
	<g>
	</g>
	<path fill="#FFFFFF" d="M47.371,23.8c0,0-5.104,6.2-7.604,7.367s6.542,2.333,7.604,1.667S47.371,23.8,47.371,23.8z"/>
	<path fill="#FFFFFF" d="M82.1,7c0,0-3.501,7.167-2.667,9.667S74.767,13,74.767,13L82.1,7z"/>
	<path fill="#FFFFFF" d="M49.027,41.652c0,0,0.927,8.015,0,9.015s4.072-1.182,4.406-4.508s-2.26-6.826-2.26-6.826L49.027,41.652z"/>
	<path fill="#FFFFFF" d="M67.275,29.83c0,0,4.158-4.33,6.158-8.163s1.667,4.833,1.334,6.167
		C74.433,29.167,67.275,29.83,67.275,29.83z"/>
	<path fill="#FFFFFF" d="M86.767,30.667c0,0,5.166,1.333,6.833,0s-1.579,5.282-2.456,5.808S86.767,30.667,86.767,30.667z"/>
	<path fill="#FFFFFF" d="M80.1,58.667c0,0-5.167-4.512-3.833-7.756c1.333-3.245,5.833-0.744,5.833-0.744S79.6,55.667,80.1,58.667z"
		/>
	<path fill="#FFFFFF" d="M64.1,73.667c0,0-1-4.167,0-9.5c1-5.334-6.167,3.5-6.167,3.5S60.6,73.333,64.1,73.667z"/>
	<path fill="#FFFFFF" d="M40.433,62.455c0,0,3.279,3.264,6.723,3.404s-3.362,4.475-3.362,4.475l-3.361,0.834
		C40.433,71.167,39.933,65.577,40.433,62.455z"/>
	<path fill="#FFFFFF" d="M36.933,95.167c0,0-0.833-8.5,0.833-10.667S29.933,89,29.933,89S33.1,94.667,36.933,95.167z"/>
	<path fill="#FFFFFF" d="M19.1,79.833c0,0,3.667,7.167,6.667,6.167S15.1,87,15.1,87S16.1,82.333,19.1,79.833z"/>
	<path fill="#FFFFFF" d="M74.433,0.167c0,0-4.784,7.308-14.666,10.667c-8.334,2.833-18.535,15.683-11,30.333
		c6,11.667,21.418,13.37,28.833,12.833c13.834-1,21.667-25.833,1-27.666c0,0-13.217-0.484-17.166,11.667
		c-3.071,9.448-2.083,17.984-5.643,22.269c-2.031,2.443-1.502,3.352-12.126,6.76c-8.833,2.834-7.898,11.805-14.231,16.138
		c-5.934,4.06-18.787,7.038-29.371-13.333c0,0-1.963,17.833,16.06,22.455c6.361,1.631,16.311,1.571,21.977-5.455
		c5.524-6.85,4.857-11.215,18-14.834c11.5-3.166,10.834-16.166,11.334-17.666S66.766,43.5,70.266,38.5
		c3.208-4.583,8.667-7,11.667-3.167c0,0,4.607,5.517-1.167,9.667c-5.333,3.833-14.833-0.667-14.833-0.667S54.267,41,55.599,31.167
		c1.176-8.667,5.822-10.031,15.909-14.955C82.295,10.947,88.933,0.167,88.933,0.167H74.433z"/>
</g>
</svg>
