<?xml version="1.0" encoding="utf-8"?>
<!-- Generator: Adobe Illustrator 16.0.0, SVG Export Plug-In . SVG Version: 6.00 Build 0)  -->
<!DOCTYPE svg PUBLIC "-//W3C//DTD SVG 1.1//EN" "http://www.w3.org/Graphics/SVG/1.1/DTD/svg11.dtd">
<svg version="1.1" id="Layer_1" xmlns="http://www.w3.org/2000/svg" xmlns:xlink="http://www.w3.org/1999/xlink" x="0px" y="0px"
	 width="48.905px" height="45.391px" viewBox="0 0 48.905 45.391" enable-background="new 0 0 48.905 45.391" xml:space="preserve">
<g id="XMLID_1_">
	<path fill="#009999" d="M23.697,31.22c0,0-1.849-5.729,0.928-8.123c2.188-1.887,5.205-2.339,6.793,1.693
		c1.331,3.387-0.952,8.686-4.062,10.203c-5.778,2.814-8.233,1.025-11.788-3.179c-4.269-5.052-5.163-8.879-4.013-12.508
		c0.992-3.142,3.081-6.816,6.507-8.891c4.735-2.867,10.708-2.909,15.414,0c5.706,3.526,6.497,6.459,8.684,12.845
		c0,0,1.487-2.552,1.405-6.558c-0.1-4.88-6.417-11.913-13.628-13.146c-4.249-0.727-9.7-0.555-15.575,3.342
		c-6.756,4.481-8.728,11.259-8.728,14.969c0,3.71,0,14.972,11.828,18.356c9.299,2.657,15.844-3.365,17.487-6.43
		c0.185-0.347,4.347-8.89-1.13-14.971c-3.634-4.033-7.901-3.387-9.937-2.307C20.981,18.055,16.393,23.017,23.697,31.22z"/>
	<path fill="#009999" d="M48.905,16.08c0,0-5.778-3.88-8.925-7.504c-1.289-1.485-1.421-0.219,2.716,13.476
		C42.696,22.051,44.129,18.183,48.905,16.08z"/>
	<path fill="#009999" d="M34.873,0c0,0-3.598,3.186-9.479,3.19c-5.019,0.004,8.823,5.359,8.823,5.359l7.053,1.866
		C41.27,10.416,36.024,3.132,34.873,0z"/>
	<path fill="#009999" d="M14.419,1.7c0,0,5.546,1.408,10.975,1.49C30.536,3.268,7.938,13.396,7.938,13.396S12.982,7.709,14.419,1.7z
		"/>
	<path fill="#009999" d="M0,20.769c0,0,4.761-3.831,8.597-8.092c2.694-2.989-0.365,20.754-0.365,20.754S3.037,24.08,0,20.769z"/>
	<path fill="#009999" d="M22.16,45.391c0,0-6.773-4.39-10.711-8.214c-2.269-2.205,21.428-0.021,21.428-0.021
		S24.382,41.339,22.16,45.391z"/>
	<path fill="#009999" d="M40.591,31.108c0,0-3.814-2.459-4.052-6.234c-0.235-3.769-5.648,13.176-5.648,13.176
		S36.425,36.078,40.591,31.108z"/>
	<path fill="#009999" d="M16.025,18.183c0,0,3.463,1.607,5.164,0.397c2.064-1.469,0.383,9.759,0.383,9.759S18,22.513,16.025,18.183z
		"/>
	<path fill="#009999" d="M10.91,33.36l7.868,1.668c0,0-4.414-4.725-2.753-9.449c0,0-4.728,0-5.388,1.703L10.91,33.36z"/>
</g>
</svg>
