<?xml version="1.0" encoding="utf-8"?>
<!-- Generator: Adobe Illustrator 16.0.0, SVG Export Plug-In . SVG Version: 6.00 Build 0)  -->
<!DOCTYPE svg PUBLIC "-//W3C//DTD SVG 1.1//EN" "http://www.w3.org/Graphics/SVG/1.1/DTD/svg11.dtd">
<svg version="1.1" id="Layer_1" xmlns="http://www.w3.org/2000/svg" xmlns:xlink="http://www.w3.org/1999/xlink" x="0px" y="0px"
	 width="377.25px" height="30.796px" viewBox="0 0 377.25 30.796" enable-background="new 0 0 377.25 30.796" xml:space="preserve">
<g>
	<g>
		<path fill="#FFFFFF" d="M376.288,1.75c0,0-5.346,7.339-17.053,9.965c0,0-7.25-9.209-19.459-9.965"/>
		<path fill="#FFFFFF" d="M1,1.75c0,0,5.345,7.339,17.053,9.965c0,0,7.25-9.209,19.458-9.965"/>
		<polygon fill="#FFFFFF" points="376.875,0.656 376.25,1.75 288.375,1.75 289.625,0.656 		"/>
		<polygon fill="#FFFFFF" points="377.25,0 376.625,1.094 288.75,1.094 290,0 		"/>
		<polygon fill="#FFFFFF" points="0.375,0.656 1,1.75 88.875,1.75 87.625,0.656 		"/>
		<polygon fill="#FFFFFF" points="0,0 0.625,1.094 88.5,1.094 87.25,0 		"/>
		<polygon fill="#FFFFFF" points="84,0.656 84.625,1.75 172.5,1.75 171.25,0.656 		"/>
		<polygon fill="#FFFFFF" points="83.625,0 84.25,1.094 172.125,1.094 170.875,0 		"/>
		<polygon fill="#FFFFFF" points="164.375,0.656 165,1.75 252.875,1.75 251.625,0.656 		"/>
		<polygon fill="#FFFFFF" points="164,0 164.625,1.094 252.5,1.094 251.25,0 		"/>
		<polygon fill="#FFFFFF" points="214.375,0.656 215,1.75 302.875,1.75 301.625,0.656 		"/>
		<polygon fill="#FFFFFF" points="214,0 214.625,1.094 302.5,1.094 301.25,0 		"/>
	</g>
	<g>
		<polygon fill="#FFFFFF" points="46.042,9.73 46.667,10.824 134.542,10.824 133.292,9.73 		"/>
		<polygon fill="#FFFFFF" points="45.667,9.074 46.292,10.168 134.167,10.168 132.917,9.074 		"/>
		<polygon fill="#FFFFFF" points="326.333,9.73 325.708,10.824 237.833,10.824 239.083,9.73 		"/>
		<polygon fill="#FFFFFF" points="326.708,9.074 326.083,10.168 238.208,10.168 239.458,9.074 		"/>
		<polygon fill="#FFFFFF" points="241.333,9.73 240.708,10.824 152.833,10.824 154.083,9.73 		"/>
		<polygon fill="#FFFFFF" points="241.708,9.074 241.083,10.168 153.208,10.168 154.458,9.074 		"/>
		<polygon fill="#FFFFFF" points="169.333,9.73 168.708,10.824 80.833,10.824 82.083,9.73 		"/>
		<polygon fill="#FFFFFF" points="169.708,9.074 169.083,10.168 81.208,10.168 82.458,9.074 		"/>
		<path fill="#FFFFFF" d="M67.345,17.756c0,0-3.667,1-6.75-3.416c-3.267-4.68-0.292-3.542-0.292-3.542l-13.396-0.006
			c0,0,4.896,0.422,7.688,3.645c2.832,3.269,5.833,4.444,7.125,4.819s4.292,0.792,5.342,0.052
			C68.201,18.506,67.97,17.631,67.345,17.756z"/>
		<path fill="#FFFFFF" d="M305.24,17.623c0,0,3.667,1,6.75-3.416c3.267-4.68,0.292-3.542,0.292-3.542l13.396-0.006
			c0,0-4.896,0.422-7.688,3.645c-2.831,3.269-5.833,4.444-7.125,4.819s-4.292,0.792-5.343,0.052
			C304.385,18.373,304.616,17.498,305.24,17.623z"/>
	</g>
</g>
</svg>
