<?xml version="1.0" encoding="utf-8"?>
<!-- Generator: Adobe Illustrator 16.0.0, SVG Export Plug-In . SVG Version: 6.00 Build 0)  -->
<!DOCTYPE svg PUBLIC "-//W3C//DTD SVG 1.1//EN" "http://www.w3.org/Graphics/SVG/1.1/DTD/svg11.dtd">
<svg version="1.1" id="Layer_1" xmlns="http://www.w3.org/2000/svg" xmlns:xlink="http://www.w3.org/1999/xlink" x="0px" y="0px"
	 width="77.339px" height="277.376px" viewBox="0 0 77.339 277.376" enable-background="new 0 0 77.339 277.376"
	 xml:space="preserve">
<g>
	<path fill="#39C0C4" d="M71.783,80.41c0,24.65-2.501,44.632-27.15,44.632C19.982,125.042,0,105.06,0,80.41
		s19.982-44.632,44.633-44.632C69.282,35.778,71.783,55.76,71.783,80.41z"/>
	<path fill="#39C0C4" d="M0,80.41c0.55,19.368,3.375,25.798,17.3,39.062c17.068,16.258,14.315,28.071,14.315,28.071
		s0.253,61.5-0.08,78.834c-0.333,17.332,16.689,28.666,16.689,28.666l29.114,22.334V0c0,0-11.039,34.456-35.595,35.881"/>
</g>
<ellipse fill="#666766" cx="54.779" cy="156.654" rx="13.975" ry="14.504"/>
<ellipse fill="#666766" cx="54.779" cy="195.097" rx="14.535" ry="15.086"/>
<ellipse fill="#666766" cx="54.779" cy="231.422" rx="14.067" ry="14.601"/>
</svg>
